<mxfile host="app.diagrams.net" modified="2022-01-02T15:35:31.594Z" agent="5.0 (Windows NT 6.1; Win64; x64) AppleWebKit/537.36 (KHTML, like Gecko) Chrome/96.0.4664.110 Safari/537.36" etag="5BZMZhKvRH34WqVJbmxB" version="16.1.2" type="github">
  <diagram id="IK8lRMm0-H9MZ-hsom_0" name="Gestión de Usuarios">
    <mxGraphModel dx="690" dy="392" grid="1" gridSize="10" guides="1" tooltips="1" connect="1" arrows="1" fold="1" page="1" pageScale="1" pageWidth="827" pageHeight="1169" math="0" shadow="0">
      <root>
        <mxCell id="0" />
        <mxCell id="1" parent="0" />
        <mxCell id="AspnEUy1_95gMVON6xdV-14" value="Gestión de Usuarios - Roles y Permisos" style="shape=table;childLayout=tableLayout;startSize=20;collapsible=0;recursiveResize=0;expand=0;fontStyle=1;" vertex="1" parent="1">
          <mxGeometry x="100" y="160" width="1000" height="190" as="geometry" />
        </mxCell>
        <mxCell id="AspnEUy1_95gMVON6xdV-35" style="shape=tableRow;horizontal=1;startSize=0;swimlaneHead=0;swimlaneBody=0;top=0;left=0;bottom=0;right=0;dropTarget=0;fillColor=none;collapsible=0;recursiveResize=0;expand=0;fontStyle=1;whiteSpace=wrap;" vertex="1" parent="AspnEUy1_95gMVON6xdV-14">
          <mxGeometry y="20" width="1000" height="50" as="geometry" />
        </mxCell>
        <mxCell id="AspnEUy1_95gMVON6xdV-36" style="swimlane;swimlaneHead=0;swimlaneBody=0;fontStyle=0;connectable=0;fillColor=none;startSize=0;collapsible=0;recursiveResize=0;expand=0;fontStyle=1;" vertex="1" parent="AspnEUy1_95gMVON6xdV-35">
          <mxGeometry width="160" height="50" as="geometry">
            <mxRectangle width="160" height="50" as="alternateBounds" />
          </mxGeometry>
        </mxCell>
        <mxCell id="AspnEUy1_95gMVON6xdV-37" value="Crear usuario &#xa;(A-12)" style="swimlane;swimlaneHead=0;swimlaneBody=0;fontStyle=0;connectable=0;fillColor=none;startSize=0;collapsible=0;recursiveResize=0;expand=0;fontStyle=1;whiteSpace=wrap;verticalAlign=top;" vertex="1" parent="AspnEUy1_95gMVON6xdV-35">
          <mxGeometry x="160" width="120" height="50" as="geometry">
            <mxRectangle width="120" height="50" as="alternateBounds" />
          </mxGeometry>
        </mxCell>
        <mxCell id="AspnEUy1_95gMVON6xdV-38" value="Cambiar Estado de Usuario &#xa;(A-19)" style="swimlane;swimlaneHead=0;swimlaneBody=0;fontStyle=0;connectable=0;fillColor=none;startSize=0;collapsible=0;recursiveResize=0;expand=0;fontStyle=1;verticalAlign=top;whiteSpace=wrap;" vertex="1" parent="AspnEUy1_95gMVON6xdV-35">
          <mxGeometry x="280" width="120" height="50" as="geometry">
            <mxRectangle width="120" height="50" as="alternateBounds" />
          </mxGeometry>
        </mxCell>
        <mxCell id="AspnEUy1_95gMVON6xdV-71" style="swimlane;swimlaneHead=0;swimlaneBody=0;fontStyle=0;connectable=0;fillColor=none;startSize=0;collapsible=0;recursiveResize=0;expand=0;fontStyle=1;verticalAlign=top;whiteSpace=wrap;" vertex="1" parent="AspnEUy1_95gMVON6xdV-35">
          <mxGeometry x="400" width="120" height="50" as="geometry">
            <mxRectangle width="120" height="50" as="alternateBounds" />
          </mxGeometry>
        </mxCell>
        <mxCell id="AspnEUy1_95gMVON6xdV-76" value="Cambiar Roles de Usuario &#xa;(A-20)" style="swimlane;swimlaneHead=0;swimlaneBody=0;fontStyle=0;connectable=0;fillColor=none;startSize=0;collapsible=0;recursiveResize=0;expand=0;fontStyle=1;verticalAlign=top;whiteSpace=wrap;" vertex="1" parent="AspnEUy1_95gMVON6xdV-71">
          <mxGeometry width="120" height="50" as="geometry">
            <mxRectangle width="120" height="50" as="alternateBounds" />
          </mxGeometry>
        </mxCell>
        <mxCell id="AspnEUy1_95gMVON6xdV-40" style="swimlane;swimlaneHead=0;swimlaneBody=0;fontStyle=0;connectable=0;fillColor=none;startSize=0;collapsible=0;recursiveResize=0;expand=0;fontStyle=1;" vertex="1" parent="AspnEUy1_95gMVON6xdV-35">
          <mxGeometry x="520" width="120" height="50" as="geometry">
            <mxRectangle width="120" height="50" as="alternateBounds" />
          </mxGeometry>
        </mxCell>
        <mxCell id="AspnEUy1_95gMVON6xdV-86" style="swimlane;swimlaneHead=0;swimlaneBody=0;fontStyle=0;connectable=0;fillColor=none;startSize=0;collapsible=0;recursiveResize=0;expand=0;fontStyle=1;" vertex="1" parent="AspnEUy1_95gMVON6xdV-35">
          <mxGeometry x="640" width="120" height="50" as="geometry">
            <mxRectangle width="120" height="50" as="alternateBounds" />
          </mxGeometry>
        </mxCell>
        <mxCell id="AspnEUy1_95gMVON6xdV-107" style="swimlane;swimlaneHead=0;swimlaneBody=0;fontStyle=0;connectable=0;fillColor=none;startSize=0;collapsible=0;recursiveResize=0;expand=0;fontStyle=1;" vertex="1" parent="AspnEUy1_95gMVON6xdV-35">
          <mxGeometry x="760" width="120" height="50" as="geometry">
            <mxRectangle width="120" height="50" as="alternateBounds" />
          </mxGeometry>
        </mxCell>
        <mxCell id="AspnEUy1_95gMVON6xdV-118" style="swimlane;swimlaneHead=0;swimlaneBody=0;fontStyle=0;connectable=0;fillColor=none;startSize=0;collapsible=0;recursiveResize=0;expand=0;fontStyle=1;" vertex="1" parent="AspnEUy1_95gMVON6xdV-35">
          <mxGeometry x="880" width="120" height="50" as="geometry">
            <mxRectangle width="120" height="50" as="alternateBounds" />
          </mxGeometry>
        </mxCell>
        <mxCell id="AspnEUy1_95gMVON6xdV-51" style="shape=tableRow;horizontal=1;startSize=0;swimlaneHead=0;swimlaneBody=0;top=0;left=0;bottom=0;right=0;dropTarget=0;fillColor=none;collapsible=0;recursiveResize=0;expand=0;fontStyle=1;whiteSpace=wrap;" vertex="1" parent="AspnEUy1_95gMVON6xdV-14">
          <mxGeometry y="70" width="1000" height="30" as="geometry" />
        </mxCell>
        <mxCell id="AspnEUy1_95gMVON6xdV-52" value="Administrador" style="swimlane;swimlaneHead=0;swimlaneBody=0;fontStyle=0;connectable=0;fillColor=none;startSize=0;collapsible=0;recursiveResize=0;expand=0;fontStyle=1;verticalAlign=top;whiteSpace=wrap;html=1;" vertex="1" parent="AspnEUy1_95gMVON6xdV-51">
          <mxGeometry width="160" height="30" as="geometry">
            <mxRectangle width="160" height="30" as="alternateBounds" />
          </mxGeometry>
        </mxCell>
        <mxCell id="AspnEUy1_95gMVON6xdV-53" value="C" style="swimlane;swimlaneHead=0;swimlaneBody=0;fontStyle=0;connectable=0;fillColor=none;startSize=0;collapsible=0;recursiveResize=0;expand=0;fontStyle=1;verticalAlign=top;" vertex="1" parent="AspnEUy1_95gMVON6xdV-51">
          <mxGeometry x="160" width="120" height="30" as="geometry">
            <mxRectangle width="120" height="30" as="alternateBounds" />
          </mxGeometry>
        </mxCell>
        <mxCell id="AspnEUy1_95gMVON6xdV-54" value="U" style="swimlane;swimlaneHead=0;swimlaneBody=0;fontStyle=0;connectable=0;fillColor=none;startSize=0;collapsible=0;recursiveResize=0;expand=0;fontStyle=1;verticalAlign=top;" vertex="1" parent="AspnEUy1_95gMVON6xdV-51">
          <mxGeometry x="280" width="120" height="30" as="geometry">
            <mxRectangle width="120" height="30" as="alternateBounds" />
          </mxGeometry>
        </mxCell>
        <mxCell id="AspnEUy1_95gMVON6xdV-72" value="U" style="swimlane;swimlaneHead=0;swimlaneBody=0;fontStyle=0;connectable=0;fillColor=none;startSize=0;collapsible=0;recursiveResize=0;expand=0;fontStyle=1;verticalAlign=top;" vertex="1" parent="AspnEUy1_95gMVON6xdV-51">
          <mxGeometry x="400" width="120" height="30" as="geometry">
            <mxRectangle width="120" height="30" as="alternateBounds" />
          </mxGeometry>
        </mxCell>
        <mxCell id="AspnEUy1_95gMVON6xdV-55" style="swimlane;swimlaneHead=0;swimlaneBody=0;fontStyle=0;connectable=0;fillColor=none;startSize=0;collapsible=0;recursiveResize=0;expand=0;fontStyle=1;" vertex="1" parent="AspnEUy1_95gMVON6xdV-51">
          <mxGeometry x="520" width="120" height="30" as="geometry">
            <mxRectangle width="120" height="30" as="alternateBounds" />
          </mxGeometry>
        </mxCell>
        <mxCell id="AspnEUy1_95gMVON6xdV-91" value="Listar Usuarios &#xa;(A-18)" style="swimlane;swimlaneHead=0;swimlaneBody=0;fontStyle=0;connectable=0;fillColor=none;startSize=0;collapsible=0;recursiveResize=0;expand=0;fontStyle=1;verticalAlign=top;whiteSpace=wrap;" vertex="1" parent="AspnEUy1_95gMVON6xdV-55">
          <mxGeometry y="-50" width="120" height="50" as="geometry">
            <mxRectangle width="120" height="50" as="alternateBounds" />
          </mxGeometry>
        </mxCell>
        <mxCell id="AspnEUy1_95gMVON6xdV-87" style="swimlane;swimlaneHead=0;swimlaneBody=0;fontStyle=0;connectable=0;fillColor=none;startSize=0;collapsible=0;recursiveResize=0;expand=0;fontStyle=1;" vertex="1" parent="AspnEUy1_95gMVON6xdV-51">
          <mxGeometry x="640" width="120" height="30" as="geometry">
            <mxRectangle width="120" height="30" as="alternateBounds" />
          </mxGeometry>
        </mxCell>
        <mxCell id="AspnEUy1_95gMVON6xdV-101" style="swimlane;swimlaneHead=0;swimlaneBody=0;fontStyle=0;connectable=0;fillColor=none;startSize=0;collapsible=0;recursiveResize=0;expand=0;fontStyle=1;verticalAlign=top;whiteSpace=wrap;" vertex="1" parent="AspnEUy1_95gMVON6xdV-87">
          <mxGeometry y="-50" width="120" height="50" as="geometry">
            <mxRectangle width="120" height="50" as="alternateBounds" />
          </mxGeometry>
        </mxCell>
        <mxCell id="AspnEUy1_95gMVON6xdV-102" value="Cambiar Contraseña de Usuario &#xa;(A-13)" style="swimlane;swimlaneHead=0;swimlaneBody=0;fontStyle=0;connectable=0;fillColor=none;startSize=0;collapsible=0;recursiveResize=0;expand=0;fontStyle=1;verticalAlign=top;whiteSpace=wrap;" vertex="1" parent="AspnEUy1_95gMVON6xdV-101">
          <mxGeometry x="120" width="120" height="50" as="geometry">
            <mxRectangle width="120" height="50" as="alternateBounds" />
          </mxGeometry>
        </mxCell>
        <mxCell id="AspnEUy1_95gMVON6xdV-104" value="U" style="swimlane;swimlaneHead=0;swimlaneBody=0;fontStyle=0;connectable=0;fillColor=none;startSize=0;collapsible=0;recursiveResize=0;expand=0;fontStyle=1;verticalAlign=top;" vertex="1" parent="AspnEUy1_95gMVON6xdV-87">
          <mxGeometry x="120" width="120" height="30" as="geometry">
            <mxRectangle width="120" height="30" as="alternateBounds" />
          </mxGeometry>
        </mxCell>
        <mxCell id="AspnEUy1_95gMVON6xdV-108" style="swimlane;swimlaneHead=0;swimlaneBody=0;fontStyle=0;connectable=0;fillColor=none;startSize=0;collapsible=0;recursiveResize=0;expand=0;fontStyle=1;" vertex="1" parent="AspnEUy1_95gMVON6xdV-51">
          <mxGeometry x="760" width="120" height="30" as="geometry">
            <mxRectangle width="120" height="30" as="alternateBounds" />
          </mxGeometry>
        </mxCell>
        <mxCell id="AspnEUy1_95gMVON6xdV-119" style="swimlane;swimlaneHead=0;swimlaneBody=0;fontStyle=0;connectable=0;fillColor=none;startSize=0;collapsible=0;recursiveResize=0;expand=0;fontStyle=1;" vertex="1" parent="AspnEUy1_95gMVON6xdV-51">
          <mxGeometry x="880" width="120" height="30" as="geometry">
            <mxRectangle width="120" height="30" as="alternateBounds" />
          </mxGeometry>
        </mxCell>
        <mxCell id="AspnEUy1_95gMVON6xdV-56" style="shape=tableRow;horizontal=1;startSize=0;swimlaneHead=0;swimlaneBody=0;top=0;left=0;bottom=0;right=0;dropTarget=0;fillColor=none;collapsible=0;recursiveResize=0;expand=0;fontStyle=1;whiteSpace=wrap;" vertex="1" parent="AspnEUy1_95gMVON6xdV-14">
          <mxGeometry y="100" width="1000" height="30" as="geometry" />
        </mxCell>
        <mxCell id="AspnEUy1_95gMVON6xdV-57" value="Catalogador" style="swimlane;swimlaneHead=0;swimlaneBody=0;fontStyle=0;connectable=0;fillColor=none;startSize=0;collapsible=0;recursiveResize=0;expand=0;fontStyle=1;verticalAlign=top;whiteSpace=wrap;html=1;" vertex="1" parent="AspnEUy1_95gMVON6xdV-56">
          <mxGeometry width="160" height="30" as="geometry">
            <mxRectangle width="160" height="30" as="alternateBounds" />
          </mxGeometry>
        </mxCell>
        <mxCell id="AspnEUy1_95gMVON6xdV-58" value="-" style="swimlane;swimlaneHead=0;swimlaneBody=0;fontStyle=0;connectable=0;fillColor=none;startSize=0;collapsible=0;recursiveResize=0;expand=0;fontStyle=1;whiteSpace=wrap;verticalAlign=top;" vertex="1" parent="AspnEUy1_95gMVON6xdV-56">
          <mxGeometry x="160" width="120" height="30" as="geometry">
            <mxRectangle width="120" height="30" as="alternateBounds" />
          </mxGeometry>
        </mxCell>
        <mxCell id="AspnEUy1_95gMVON6xdV-59" style="swimlane;swimlaneHead=0;swimlaneBody=0;fontStyle=0;connectable=0;fillColor=none;startSize=0;collapsible=0;recursiveResize=0;expand=0;fontStyle=1;" vertex="1" parent="AspnEUy1_95gMVON6xdV-56">
          <mxGeometry x="280" width="120" height="30" as="geometry">
            <mxRectangle width="120" height="30" as="alternateBounds" />
          </mxGeometry>
        </mxCell>
        <mxCell id="AspnEUy1_95gMVON6xdV-73" style="swimlane;swimlaneHead=0;swimlaneBody=0;fontStyle=0;connectable=0;fillColor=none;startSize=0;collapsible=0;recursiveResize=0;expand=0;fontStyle=1;" vertex="1" parent="AspnEUy1_95gMVON6xdV-56">
          <mxGeometry x="400" width="120" height="30" as="geometry">
            <mxRectangle width="120" height="30" as="alternateBounds" />
          </mxGeometry>
        </mxCell>
        <mxCell id="AspnEUy1_95gMVON6xdV-60" style="swimlane;swimlaneHead=0;swimlaneBody=0;fontStyle=0;connectable=0;fillColor=none;startSize=0;collapsible=0;recursiveResize=0;expand=0;fontStyle=1;" vertex="1" parent="AspnEUy1_95gMVON6xdV-56">
          <mxGeometry x="520" width="120" height="30" as="geometry">
            <mxRectangle width="120" height="30" as="alternateBounds" />
          </mxGeometry>
        </mxCell>
        <mxCell id="AspnEUy1_95gMVON6xdV-92" value="R" style="swimlane;swimlaneHead=0;swimlaneBody=0;fontStyle=0;connectable=0;fillColor=none;startSize=0;collapsible=0;recursiveResize=0;expand=0;fontStyle=1;verticalAlign=top;" vertex="1" parent="AspnEUy1_95gMVON6xdV-60">
          <mxGeometry y="-30" width="120" height="30" as="geometry">
            <mxRectangle width="120" height="30" as="alternateBounds" />
          </mxGeometry>
        </mxCell>
        <mxCell id="AspnEUy1_95gMVON6xdV-99" value="R" style="swimlane;swimlaneHead=0;swimlaneBody=0;fontStyle=0;connectable=0;fillColor=none;startSize=0;collapsible=0;recursiveResize=0;expand=0;fontStyle=1;verticalAlign=top;" vertex="1" parent="AspnEUy1_95gMVON6xdV-60">
          <mxGeometry width="120" height="30" as="geometry">
            <mxRectangle width="120" height="30" as="alternateBounds" />
          </mxGeometry>
        </mxCell>
        <mxCell id="AspnEUy1_95gMVON6xdV-88" style="swimlane;swimlaneHead=0;swimlaneBody=0;fontStyle=0;connectable=0;fillColor=none;startSize=0;collapsible=0;recursiveResize=0;expand=0;fontStyle=1;" vertex="1" parent="AspnEUy1_95gMVON6xdV-56">
          <mxGeometry x="640" width="120" height="30" as="geometry">
            <mxRectangle width="120" height="30" as="alternateBounds" />
          </mxGeometry>
        </mxCell>
        <mxCell id="AspnEUy1_95gMVON6xdV-109" style="swimlane;swimlaneHead=0;swimlaneBody=0;fontStyle=0;connectable=0;fillColor=none;startSize=0;collapsible=0;recursiveResize=0;expand=0;fontStyle=1;" vertex="1" parent="AspnEUy1_95gMVON6xdV-56">
          <mxGeometry x="760" width="120" height="30" as="geometry">
            <mxRectangle width="120" height="30" as="alternateBounds" />
          </mxGeometry>
        </mxCell>
        <mxCell id="AspnEUy1_95gMVON6xdV-120" style="swimlane;swimlaneHead=0;swimlaneBody=0;fontStyle=0;connectable=0;fillColor=none;startSize=0;collapsible=0;recursiveResize=0;expand=0;fontStyle=1;" vertex="1" parent="AspnEUy1_95gMVON6xdV-56">
          <mxGeometry x="880" width="120" height="30" as="geometry">
            <mxRectangle width="120" height="30" as="alternateBounds" />
          </mxGeometry>
        </mxCell>
        <mxCell id="AspnEUy1_95gMVON6xdV-61" style="shape=tableRow;horizontal=1;startSize=0;swimlaneHead=0;swimlaneBody=0;top=0;left=0;bottom=0;right=0;dropTarget=0;fillColor=none;collapsible=0;recursiveResize=0;expand=0;fontStyle=1;whiteSpace=wrap;" vertex="1" parent="AspnEUy1_95gMVON6xdV-14">
          <mxGeometry y="130" width="1000" height="30" as="geometry" />
        </mxCell>
        <mxCell id="AspnEUy1_95gMVON6xdV-62" value="Responsable Activo" style="swimlane;swimlaneHead=0;swimlaneBody=0;fontStyle=0;connectable=0;fillColor=none;startSize=0;collapsible=0;recursiveResize=0;expand=0;fontStyle=1;verticalAlign=top;whiteSpace=wrap;html=1;" vertex="1" parent="AspnEUy1_95gMVON6xdV-61">
          <mxGeometry width="160" height="30" as="geometry">
            <mxRectangle width="160" height="30" as="alternateBounds" />
          </mxGeometry>
        </mxCell>
        <mxCell id="AspnEUy1_95gMVON6xdV-63" value="-" style="swimlane;swimlaneHead=0;swimlaneBody=0;fontStyle=0;connectable=0;fillColor=none;startSize=0;collapsible=0;recursiveResize=0;expand=0;fontStyle=1;verticalAlign=top;" vertex="1" parent="AspnEUy1_95gMVON6xdV-61">
          <mxGeometry x="160" width="120" height="30" as="geometry">
            <mxRectangle width="120" height="30" as="alternateBounds" />
          </mxGeometry>
        </mxCell>
        <mxCell id="AspnEUy1_95gMVON6xdV-64" style="swimlane;swimlaneHead=0;swimlaneBody=0;fontStyle=0;connectable=0;fillColor=none;startSize=0;collapsible=0;recursiveResize=0;expand=0;fontStyle=1;" vertex="1" parent="AspnEUy1_95gMVON6xdV-61">
          <mxGeometry x="280" width="120" height="30" as="geometry">
            <mxRectangle width="120" height="30" as="alternateBounds" />
          </mxGeometry>
        </mxCell>
        <mxCell id="AspnEUy1_95gMVON6xdV-74" style="swimlane;swimlaneHead=0;swimlaneBody=0;fontStyle=0;connectable=0;fillColor=none;startSize=0;collapsible=0;recursiveResize=0;expand=0;fontStyle=1;" vertex="1" parent="AspnEUy1_95gMVON6xdV-61">
          <mxGeometry x="400" width="120" height="30" as="geometry">
            <mxRectangle width="120" height="30" as="alternateBounds" />
          </mxGeometry>
        </mxCell>
        <mxCell id="AspnEUy1_95gMVON6xdV-65" value="" style="swimlane;swimlaneHead=0;swimlaneBody=0;fontStyle=0;connectable=0;fillColor=none;startSize=0;collapsible=0;recursiveResize=0;expand=0;fontStyle=1;" vertex="1" parent="AspnEUy1_95gMVON6xdV-61">
          <mxGeometry x="520" width="120" height="30" as="geometry">
            <mxRectangle width="120" height="30" as="alternateBounds" />
          </mxGeometry>
        </mxCell>
        <mxCell id="AspnEUy1_95gMVON6xdV-89" style="swimlane;swimlaneHead=0;swimlaneBody=0;fontStyle=0;connectable=0;fillColor=none;startSize=0;collapsible=0;recursiveResize=0;expand=0;fontStyle=1;" vertex="1" parent="AspnEUy1_95gMVON6xdV-61">
          <mxGeometry x="640" width="120" height="30" as="geometry">
            <mxRectangle width="120" height="30" as="alternateBounds" />
          </mxGeometry>
        </mxCell>
        <mxCell id="AspnEUy1_95gMVON6xdV-105" value="-" style="swimlane;swimlaneHead=0;swimlaneBody=0;fontStyle=0;connectable=0;fillColor=none;startSize=0;collapsible=0;recursiveResize=0;expand=0;fontStyle=1;whiteSpace=wrap;verticalAlign=top;" vertex="1" parent="AspnEUy1_95gMVON6xdV-89">
          <mxGeometry x="120" y="-30" width="120" height="30" as="geometry">
            <mxRectangle width="120" height="30" as="alternateBounds" />
          </mxGeometry>
        </mxCell>
        <mxCell id="AspnEUy1_95gMVON6xdV-106" value="-" style="swimlane;swimlaneHead=0;swimlaneBody=0;fontStyle=0;connectable=0;fillColor=none;startSize=0;collapsible=0;recursiveResize=0;expand=0;fontStyle=1;verticalAlign=top;" vertex="1" parent="AspnEUy1_95gMVON6xdV-89">
          <mxGeometry x="120" width="120" height="30" as="geometry">
            <mxRectangle width="120" height="30" as="alternateBounds" />
          </mxGeometry>
        </mxCell>
        <mxCell id="AspnEUy1_95gMVON6xdV-110" style="swimlane;swimlaneHead=0;swimlaneBody=0;fontStyle=0;connectable=0;fillColor=none;startSize=0;collapsible=0;recursiveResize=0;expand=0;fontStyle=1;" vertex="1" parent="AspnEUy1_95gMVON6xdV-61">
          <mxGeometry x="760" width="120" height="30" as="geometry">
            <mxRectangle width="120" height="30" as="alternateBounds" />
          </mxGeometry>
        </mxCell>
        <mxCell id="AspnEUy1_95gMVON6xdV-121" style="swimlane;swimlaneHead=0;swimlaneBody=0;fontStyle=0;connectable=0;fillColor=none;startSize=0;collapsible=0;recursiveResize=0;expand=0;fontStyle=1;" vertex="1" parent="AspnEUy1_95gMVON6xdV-61">
          <mxGeometry x="880" width="120" height="30" as="geometry">
            <mxRectangle width="120" height="30" as="alternateBounds" />
          </mxGeometry>
        </mxCell>
        <mxCell id="AspnEUy1_95gMVON6xdV-66" style="shape=tableRow;horizontal=1;startSize=0;swimlaneHead=0;swimlaneBody=0;top=0;left=0;bottom=0;right=0;dropTarget=0;fillColor=none;collapsible=0;recursiveResize=0;expand=0;fontStyle=1;whiteSpace=wrap;" vertex="1" parent="AspnEUy1_95gMVON6xdV-14">
          <mxGeometry y="160" width="1000" height="30" as="geometry" />
        </mxCell>
        <mxCell id="AspnEUy1_95gMVON6xdV-67" value="Usuario" style="swimlane;swimlaneHead=0;swimlaneBody=0;fontStyle=0;connectable=0;fillColor=none;startSize=0;collapsible=0;recursiveResize=0;expand=0;fontStyle=1;verticalAlign=top;whiteSpace=wrap;html=1;" vertex="1" parent="AspnEUy1_95gMVON6xdV-66">
          <mxGeometry width="160" height="30" as="geometry">
            <mxRectangle width="160" height="30" as="alternateBounds" />
          </mxGeometry>
        </mxCell>
        <mxCell id="AspnEUy1_95gMVON6xdV-68" value="-" style="swimlane;swimlaneHead=0;swimlaneBody=0;fontStyle=0;connectable=0;fillColor=none;startSize=0;collapsible=0;recursiveResize=0;expand=0;fontStyle=1;verticalAlign=top;" vertex="1" parent="AspnEUy1_95gMVON6xdV-66">
          <mxGeometry x="160" width="120" height="30" as="geometry">
            <mxRectangle width="120" height="30" as="alternateBounds" />
          </mxGeometry>
        </mxCell>
        <mxCell id="AspnEUy1_95gMVON6xdV-69" style="swimlane;swimlaneHead=0;swimlaneBody=0;fontStyle=0;connectable=0;fillColor=none;startSize=0;collapsible=0;recursiveResize=0;expand=0;fontStyle=1;" vertex="1" parent="AspnEUy1_95gMVON6xdV-66">
          <mxGeometry x="280" width="120" height="30" as="geometry">
            <mxRectangle width="120" height="30" as="alternateBounds" />
          </mxGeometry>
        </mxCell>
        <mxCell id="AspnEUy1_95gMVON6xdV-80" value="-" style="swimlane;swimlaneHead=0;swimlaneBody=0;fontStyle=0;connectable=0;fillColor=none;startSize=0;collapsible=0;recursiveResize=0;expand=0;fontStyle=1;whiteSpace=wrap;verticalAlign=top;" vertex="1" parent="AspnEUy1_95gMVON6xdV-69">
          <mxGeometry y="-60" width="120" height="30" as="geometry">
            <mxRectangle width="120" height="30" as="alternateBounds" />
          </mxGeometry>
        </mxCell>
        <mxCell id="AspnEUy1_95gMVON6xdV-81" value="-" style="swimlane;swimlaneHead=0;swimlaneBody=0;fontStyle=0;connectable=0;fillColor=none;startSize=0;collapsible=0;recursiveResize=0;expand=0;fontStyle=1;verticalAlign=top;" vertex="1" parent="AspnEUy1_95gMVON6xdV-69">
          <mxGeometry y="-30" width="120" height="30" as="geometry">
            <mxRectangle width="120" height="30" as="alternateBounds" />
          </mxGeometry>
        </mxCell>
        <mxCell id="AspnEUy1_95gMVON6xdV-82" value="-" style="swimlane;swimlaneHead=0;swimlaneBody=0;fontStyle=0;connectable=0;fillColor=none;startSize=0;collapsible=0;recursiveResize=0;expand=0;fontStyle=1;verticalAlign=top;" vertex="1" parent="AspnEUy1_95gMVON6xdV-69">
          <mxGeometry width="120" height="30" as="geometry">
            <mxRectangle width="120" height="30" as="alternateBounds" />
          </mxGeometry>
        </mxCell>
        <mxCell id="AspnEUy1_95gMVON6xdV-75" style="swimlane;swimlaneHead=0;swimlaneBody=0;fontStyle=0;connectable=0;fillColor=none;startSize=0;collapsible=0;recursiveResize=0;expand=0;fontStyle=1;" vertex="1" parent="AspnEUy1_95gMVON6xdV-66">
          <mxGeometry x="400" width="120" height="30" as="geometry">
            <mxRectangle width="120" height="30" as="alternateBounds" />
          </mxGeometry>
        </mxCell>
        <mxCell id="AspnEUy1_95gMVON6xdV-83" value="-" style="swimlane;swimlaneHead=0;swimlaneBody=0;fontStyle=0;connectable=0;fillColor=none;startSize=0;collapsible=0;recursiveResize=0;expand=0;fontStyle=1;whiteSpace=wrap;verticalAlign=top;" vertex="1" parent="AspnEUy1_95gMVON6xdV-75">
          <mxGeometry y="-60" width="120" height="30" as="geometry">
            <mxRectangle width="120" height="30" as="alternateBounds" />
          </mxGeometry>
        </mxCell>
        <mxCell id="AspnEUy1_95gMVON6xdV-84" value="-" style="swimlane;swimlaneHead=0;swimlaneBody=0;fontStyle=0;connectable=0;fillColor=none;startSize=0;collapsible=0;recursiveResize=0;expand=0;fontStyle=1;verticalAlign=top;" vertex="1" parent="AspnEUy1_95gMVON6xdV-75">
          <mxGeometry y="-30" width="120" height="30" as="geometry">
            <mxRectangle width="120" height="30" as="alternateBounds" />
          </mxGeometry>
        </mxCell>
        <mxCell id="AspnEUy1_95gMVON6xdV-85" value="-" style="swimlane;swimlaneHead=0;swimlaneBody=0;fontStyle=0;connectable=0;fillColor=none;startSize=0;collapsible=0;recursiveResize=0;expand=0;fontStyle=1;verticalAlign=top;" vertex="1" parent="AspnEUy1_95gMVON6xdV-75">
          <mxGeometry width="120" height="30" as="geometry">
            <mxRectangle width="120" height="30" as="alternateBounds" />
          </mxGeometry>
        </mxCell>
        <mxCell id="AspnEUy1_95gMVON6xdV-70" style="swimlane;swimlaneHead=0;swimlaneBody=0;fontStyle=0;connectable=0;fillColor=none;startSize=0;collapsible=0;recursiveResize=0;expand=0;fontStyle=1;" vertex="1" parent="AspnEUy1_95gMVON6xdV-66">
          <mxGeometry x="520" width="120" height="30" as="geometry">
            <mxRectangle width="120" height="30" as="alternateBounds" />
          </mxGeometry>
        </mxCell>
        <mxCell id="AspnEUy1_95gMVON6xdV-93" value="R" style="swimlane;swimlaneHead=0;swimlaneBody=0;fontStyle=0;connectable=0;fillColor=none;startSize=0;collapsible=0;recursiveResize=0;expand=0;fontStyle=1;verticalAlign=top;" vertex="1" parent="AspnEUy1_95gMVON6xdV-70">
          <mxGeometry width="120" height="30" as="geometry">
            <mxRectangle width="120" height="30" as="alternateBounds" />
          </mxGeometry>
        </mxCell>
        <mxCell id="AspnEUy1_95gMVON6xdV-94" style="swimlane;swimlaneHead=0;swimlaneBody=0;fontStyle=0;connectable=0;fillColor=none;startSize=0;collapsible=0;recursiveResize=0;expand=0;fontStyle=1;" vertex="1" parent="AspnEUy1_95gMVON6xdV-93">
          <mxGeometry y="-30" width="120" height="30" as="geometry">
            <mxRectangle width="120" height="30" as="alternateBounds" />
          </mxGeometry>
        </mxCell>
        <mxCell id="AspnEUy1_95gMVON6xdV-100" value="R" style="swimlane;swimlaneHead=0;swimlaneBody=0;fontStyle=0;connectable=0;fillColor=none;startSize=0;collapsible=0;recursiveResize=0;expand=0;fontStyle=1;verticalAlign=top;" vertex="1" parent="AspnEUy1_95gMVON6xdV-94">
          <mxGeometry width="120" height="30" as="geometry">
            <mxRectangle width="120" height="30" as="alternateBounds" />
          </mxGeometry>
        </mxCell>
        <mxCell id="AspnEUy1_95gMVON6xdV-90" style="swimlane;swimlaneHead=0;swimlaneBody=0;fontStyle=0;connectable=0;fillColor=none;startSize=0;collapsible=0;recursiveResize=0;expand=0;fontStyle=1;" vertex="1" parent="AspnEUy1_95gMVON6xdV-66">
          <mxGeometry x="640" width="120" height="30" as="geometry">
            <mxRectangle width="120" height="30" as="alternateBounds" />
          </mxGeometry>
        </mxCell>
        <mxCell id="AspnEUy1_95gMVON6xdV-103" value="U" style="swimlane;swimlaneHead=0;swimlaneBody=0;fontStyle=0;connectable=0;fillColor=none;startSize=0;collapsible=0;recursiveResize=0;expand=0;fontStyle=1;verticalAlign=top;" vertex="1" parent="AspnEUy1_95gMVON6xdV-90">
          <mxGeometry x="120" width="120" height="30" as="geometry">
            <mxRectangle width="120" height="30" as="alternateBounds" />
          </mxGeometry>
        </mxCell>
        <mxCell id="AspnEUy1_95gMVON6xdV-111" style="swimlane;swimlaneHead=0;swimlaneBody=0;fontStyle=0;connectable=0;fillColor=none;startSize=0;collapsible=0;recursiveResize=0;expand=0;fontStyle=1;" vertex="1" parent="AspnEUy1_95gMVON6xdV-66">
          <mxGeometry x="760" width="120" height="30" as="geometry">
            <mxRectangle width="120" height="30" as="alternateBounds" />
          </mxGeometry>
        </mxCell>
        <mxCell id="AspnEUy1_95gMVON6xdV-122" style="swimlane;swimlaneHead=0;swimlaneBody=0;fontStyle=0;connectable=0;fillColor=none;startSize=0;collapsible=0;recursiveResize=0;expand=0;fontStyle=1;" vertex="1" parent="AspnEUy1_95gMVON6xdV-66">
          <mxGeometry x="880" width="120" height="30" as="geometry">
            <mxRectangle width="120" height="30" as="alternateBounds" />
          </mxGeometry>
        </mxCell>
        <mxCell id="AspnEUy1_95gMVON6xdV-123" value="Eliminar Usuario &#xa;(A-22)" style="swimlane;swimlaneHead=0;swimlaneBody=0;fontStyle=0;connectable=0;fillColor=none;startSize=0;collapsible=0;recursiveResize=0;expand=0;fontStyle=1;whiteSpace=wrap;verticalAlign=top;" vertex="1" parent="AspnEUy1_95gMVON6xdV-122">
          <mxGeometry y="-140" width="120" height="50" as="geometry">
            <mxRectangle width="120" height="50" as="alternateBounds" />
          </mxGeometry>
        </mxCell>
        <mxCell id="AspnEUy1_95gMVON6xdV-124" value="D" style="swimlane;swimlaneHead=0;swimlaneBody=0;fontStyle=0;connectable=0;fillColor=none;startSize=0;collapsible=0;recursiveResize=0;expand=0;fontStyle=1;verticalAlign=top;" vertex="1" parent="AspnEUy1_95gMVON6xdV-122">
          <mxGeometry y="-90" width="120" height="30" as="geometry">
            <mxRectangle width="120" height="30" as="alternateBounds" />
          </mxGeometry>
        </mxCell>
        <mxCell id="AspnEUy1_95gMVON6xdV-125" value="-" style="swimlane;swimlaneHead=0;swimlaneBody=0;fontStyle=0;connectable=0;fillColor=none;startSize=0;collapsible=0;recursiveResize=0;expand=0;fontStyle=1;whiteSpace=wrap;verticalAlign=top;" vertex="1" parent="AspnEUy1_95gMVON6xdV-122">
          <mxGeometry y="-60" width="120" height="30" as="geometry">
            <mxRectangle width="120" height="30" as="alternateBounds" />
          </mxGeometry>
        </mxCell>
        <mxCell id="AspnEUy1_95gMVON6xdV-126" value="-" style="swimlane;swimlaneHead=0;swimlaneBody=0;fontStyle=0;connectable=0;fillColor=none;startSize=0;collapsible=0;recursiveResize=0;expand=0;fontStyle=1;verticalAlign=top;" vertex="1" parent="AspnEUy1_95gMVON6xdV-122">
          <mxGeometry y="-30" width="120" height="30" as="geometry">
            <mxRectangle width="120" height="30" as="alternateBounds" />
          </mxGeometry>
        </mxCell>
        <mxCell id="AspnEUy1_95gMVON6xdV-127" value="-" style="swimlane;swimlaneHead=0;swimlaneBody=0;fontStyle=0;connectable=0;fillColor=none;startSize=0;collapsible=0;recursiveResize=0;expand=0;fontStyle=1;verticalAlign=top;" vertex="1" parent="AspnEUy1_95gMVON6xdV-122">
          <mxGeometry width="120" height="30" as="geometry">
            <mxRectangle width="120" height="30" as="alternateBounds" />
          </mxGeometry>
        </mxCell>
        <mxCell id="AspnEUy1_95gMVON6xdV-112" value="Consultar Perfil de Usuario&#xa;(A-21)" style="swimlane;swimlaneHead=0;swimlaneBody=0;fontStyle=0;connectable=0;fillColor=none;startSize=0;collapsible=0;recursiveResize=0;expand=0;fontStyle=1;verticalAlign=top;whiteSpace=wrap;" vertex="1" parent="1">
          <mxGeometry x="740" y="180" width="120" height="50" as="geometry">
            <mxRectangle width="120" height="50" as="alternateBounds" />
          </mxGeometry>
        </mxCell>
        <mxCell id="AspnEUy1_95gMVON6xdV-113" value="R" style="swimlane;swimlaneHead=0;swimlaneBody=0;fontStyle=0;connectable=0;fillColor=none;startSize=0;collapsible=0;recursiveResize=0;expand=0;fontStyle=1;verticalAlign=top;" vertex="1" parent="1">
          <mxGeometry x="740" y="230" width="120" height="30" as="geometry">
            <mxRectangle width="120" height="30" as="alternateBounds" />
          </mxGeometry>
        </mxCell>
        <mxCell id="AspnEUy1_95gMVON6xdV-114" value="R" style="swimlane;swimlaneHead=0;swimlaneBody=0;fontStyle=0;connectable=0;fillColor=none;startSize=0;collapsible=0;recursiveResize=0;expand=0;fontStyle=1;verticalAlign=top;" vertex="1" parent="1">
          <mxGeometry x="740" y="260" width="120" height="30" as="geometry">
            <mxRectangle width="120" height="30" as="alternateBounds" />
          </mxGeometry>
        </mxCell>
        <mxCell id="AspnEUy1_95gMVON6xdV-115" value="R" style="swimlane;swimlaneHead=0;swimlaneBody=0;fontStyle=0;connectable=0;fillColor=none;startSize=0;collapsible=0;recursiveResize=0;expand=0;fontStyle=1;verticalAlign=top;" vertex="1" parent="1">
          <mxGeometry x="740" y="320" width="120" height="30" as="geometry">
            <mxRectangle width="120" height="30" as="alternateBounds" />
          </mxGeometry>
        </mxCell>
        <mxCell id="AspnEUy1_95gMVON6xdV-116" style="swimlane;swimlaneHead=0;swimlaneBody=0;fontStyle=0;connectable=0;fillColor=none;startSize=0;collapsible=0;recursiveResize=0;expand=0;fontStyle=1;" vertex="1" parent="AspnEUy1_95gMVON6xdV-115">
          <mxGeometry y="-30" width="120" height="30" as="geometry">
            <mxRectangle width="120" height="30" as="alternateBounds" />
          </mxGeometry>
        </mxCell>
        <mxCell id="AspnEUy1_95gMVON6xdV-117" value="R" style="swimlane;swimlaneHead=0;swimlaneBody=0;fontStyle=0;connectable=0;fillColor=none;startSize=0;collapsible=0;recursiveResize=0;expand=0;fontStyle=1;verticalAlign=top;" vertex="1" parent="AspnEUy1_95gMVON6xdV-116">
          <mxGeometry width="120" height="30" as="geometry">
            <mxRectangle width="120" height="30" as="alternateBounds" />
          </mxGeometry>
        </mxCell>
      </root>
    </mxGraphModel>
  </diagram>
</mxfile>
